<svg xmlns="http://www.w3.org/2000/svg" viewBox="0 0 96 96" role="img" aria-labelledby="title">
  <title id="title">Chocolate cone</title>
  <path d="M30 54h36L52 88a5 5 0 0 1-8 0Z" fill="#FFD9B8" stroke="#4A3B45" stroke-width="5" stroke-linejoin="round"/>
  <path d="m35 62 23 18m2-18L39 79" fill="none" stroke="#C88954" stroke-width="3" stroke-linecap="round"/>
  <path d="M26 55c0-8 7-13 16-15-6-2-8-7-5-12 3-6 9-8 15-6-2-6 1-12 7-14 0 7 8 10 10 17 2 6-2 12-7 15 7 2 10 8 8 15Z" fill="#9A6248" stroke="#4A3B45" stroke-width="5" stroke-linejoin="round"/>
  <path d="M40 40c8 2 18 0 23-5M37 27c7 3 16 2 21-2" fill="none" stroke="#FFD9B8" stroke-width="5" stroke-linecap="round"/>
</svg>
