<svg xmlns="http://www.w3.org/2000/svg" viewBox="0 0 128 128" role="img" aria-labelledby="title">
  <title id="title">Chocolate scoop</title>
  <path d="M25 91c0-17 12-27 28-29-9-8-6-23 6-28-2-10 7-20 18-20 13 0 22 11 19 23 10 4 15 14 12 24 11 4 18 14 18 27 0 16-13 29-29 29H54c-16 0-29-10-29-26Z" fill="#9A6248" stroke="#4A3B45" stroke-width="6" stroke-linejoin="round"/>
  <path d="M43 82c12 7 31 8 47 1M52 58c10 6 24 6 35 1M65 36c7 3 14 3 20 0" fill="none" stroke="#FFD9B8" stroke-width="6" stroke-linecap="round"/>
  <circle cx="47" cy="96" r="5" fill="#FFD45E"/>
  <circle cx="72" cy="101" r="5" fill="#FFF3E6"/>
  <circle cx="98" cy="94" r="5" fill="#FF8FAB"/>
</svg>
